<svg xmlns="http://www.w3.org/2000/svg" version="1.1" xmlns:xlink="http://www.w3.org/1999/xlink" width="512" height="512" x="0" y="0" viewBox="0 0 512 512" style="enable-background:new 0 0 512 512" xml:space="preserve" class=""><circle r="256" cx="256" cy="256" fill="#50d0e4" shape="circle"></circle><g transform="matrix(0.7,0,0,0.7,76.80030097961426,76.80000000000001)"><path d="M210.4 299.112h-84.578c-7.16 0-12.985 5.819-12.985 12.972v80.419c0 7.152 5.825 12.971 12.985 12.971H210.4c7.159 0 12.984-5.818 12.984-12.971v-80.419c.001-7.152-5.824-12.972-12.984-12.972zm-2.015 91.362h-80.548v-76.361h3.169l13.747 6.905v14.509a7.5 7.5 0 0 0 3.163 6.119l16.796 11.905a7.494 7.494 0 0 0 10.456-1.782 7.5 7.5 0 0 0-1.782-10.456l-13.633-9.663v-15.257a7.46 7.46 0 0 0-.368-2.28h49z" fill="#223d61" opacity="1" data-original="#000000" class=""></path><path d="m459.771 165.551-38.383-24.375V53.92h6.17c7.599 0 13.78-6.162 13.78-13.736V13.736c0-7.574-6.182-13.736-13.78-13.736h-97.964c-7.583 0-13.753 6.162-13.753 13.736v26.447c0 7.574 6.17 13.736 13.753 13.736h6.198v32.907l-30.664-19.468-31.568-20.043c-16.256-10.312-38.082-10.312-54.305.001l-72.98 46.335c-4.619 2.959-5.541 6.856-5.68 8.917-.142 2.114.28 6.222 4.682 9.959l13.216 11.298-3.636 19.406a6.052 6.052 0 0 0-.044.264c-1.334 8.858 2.587 12.868 5.043 14.471 1.911 1.247 4.664 2.226 8.37 1.757l4.743 27.738a7.506 7.506 0 0 0 1.783 3.715l25.403 28.623-6.053 23.538-14.1-26.196a7.503 7.503 0 0 0-4.524-3.651l-41.039-11.849a7.502 7.502 0 0 0-8.69 3.663l-16.628 31.026-47.063 37.217a7.5 7.5 0 0 0-2.848 5.883v55.758c0 4.143 3.357 7.5 7.5 7.5s7.5-3.357 7.5-7.5V283.06l45.438-35.932a7.5 7.5 0 0 0 1.958-2.34l14.5-27.055 32.184 9.292 21.695 40.311a7.5 7.5 0 0 0 13.868-1.686l11.823-45.979a7.503 7.503 0 0 0-1.654-6.847l-26.629-30.004-5.078-29.704 53.106-33.721c4.107-2.605 9.097-3.583 13.865-2.932 2.853.392 5.625 1.368 8.08 2.93l91.955 58.386-9.431 6.694a7.502 7.502 0 0 0-3.159 6.116v16.515l-12.547 6.283-8.51-8.469a7.503 7.503 0 0 0-5.29-2.184h-24.942l-6.79-6.707a7.5 7.5 0 0 0-10.542 10.669l8.98 8.872a7.496 7.496 0 0 0 5.271 2.165h24.927l7.602 7.565-1.234 11.978-9.471 5.587a7.5 7.5 0 1 0 7.622 12.92l12.732-7.512a7.497 7.497 0 0 0 3.65-5.691l1.566-15.209 17.833-8.929a7.5 7.5 0 0 0 4.143-6.706v-17.273L363 186.464l55.58 35.291v113.431c0 4.143 3.357 7.5 7.5 7.5s7.5-3.357 7.5-7.5V228.758a34.892 34.892 0 0 0 28.97-6.54c8.482-6.611 13.348-16.578 13.348-27.346-.002-11.942-6.029-22.902-16.127-29.321zM330.841 38.92V15h95.497v23.92zm75.547 15v77.731l-55.596-35.3V53.92zm46.938 156.467c-6.612 5.157-15.809 5.606-22.885 1.113a6.798 6.798 0 0 0-.258-.156l-.211-.123-3.813-2.421-160.728-102.07c-3.275-2.078-6.879-3.537-10.616-4.419-8.427-1.995-17.557-.958-25.256 3.151-.74.395-59.412 37.61-59.412 37.61l3.887-20.749a7.5 7.5 0 0 0-2.499-7.082l-13.331-11.396 69.094-43.867c11.42-7.259 26.781-7.258 38.225.003 0 0 148.114 94.04 186.204 118.23 5.742 3.65 9.17 9.878 9.17 16.66-.001 6.111-2.759 11.766-7.571 15.516z" fill="#223d61" opacity="1" data-original="#000000" class=""></path><path d="M442.733 450.823h-9.154v-80.431c0-4.143-3.357-7.5-7.5-7.5s-7.5 3.357-7.5 7.5v80.431h-34.252V313.671c0-8.027-6.539-14.559-14.576-14.559H260.646c-8.053 0-14.604 6.531-14.604 14.559v137.152H74.209v-80.431c0-4.143-3.357-7.5-7.5-7.5s-7.5 3.357-7.5 7.5v80.431h-9.154c-7.692 0-13.951 6.264-13.951 13.963v33.251c0 7.699 6.259 13.963 13.951 13.963h392.679c7.708 0 13.979-6.264 13.979-13.963v-33.251c0-7.699-6.272-13.963-13.98-13.963zM261.042 314.112h58.295v17.721l-12.562 6.3-16.672-8.373a7.5 7.5 0 1 0-6.732 13.404l15.902 7.986v15.047a7.504 7.504 0 0 0 3.161 6.118l17.308 12.274a7.495 7.495 0 0 0 10.457-1.779 7.5 7.5 0 0 0-1.779-10.457l-14.146-10.032v-11.168l15.927-7.987a7.5 7.5 0 0 0 4.138-6.704v-22.35h34.99v136.711h-98.866l21.278-9.232a7.503 7.503 0 0 0 3.446-3.021l6.257-10.43 19.033-1.749a7.509 7.509 0 0 0 2.784-.82l9.776-5.103a7.5 7.5 0 1 0-6.941-13.297l-8.465 4.418-21.349 1.962a7.501 7.501 0 0 0-5.745 3.61l-6.976 11.628-22.519 9.771zM441.713 497H51.104v-31.177h390.609z" fill="#223d61" opacity="1" data-original="#000000" class=""></path></g></svg>