<svg xmlns="http://www.w3.org/2000/svg" version="1.1" xmlns:xlink="http://www.w3.org/1999/xlink" width="512" height="512" x="0" y="0" viewBox="0 0 64 64" style="enable-background:new 0 0 512 512" xml:space="preserve" class=""><circle r="32" cx="32" cy="32" fill="#4acca5" shape="circle"></circle><g transform="matrix(0.7,0,0,0.7,9.600000000000001,9.340178489685059)"><path d="M50.169 37.294A105.672 105.672 0 0 1 32 38.589a105.636 105.636 0 0 1-18.169-1.3c-2.653-.455-4.253 2.5-3.733 5.108 1.558 7.823 8.235 11.961 16.352 11.844a3.825 3.825 0 0 0 1.875-.523 7.762 7.762 0 0 0 1.987-1.675 1.993 1.993 0 0 1 3.375 0 7.815 7.815 0 0 0 1.989 1.676 3.827 3.827 0 0 0 1.873.522c8.017.115 14.778-3.934 16.353-11.844.517-2.587-1.069-5.567-3.733-5.103zm1.772 4.718c-1.4 7.009-7.485 10.376-14.355 10.234A1.817 1.817 0 0 1 36.7 52a5.834 5.834 0 0 1-1.516-1.286 3.965 3.965 0 0 0-6.362 0A5.8 5.8 0 0 1 27.3 52a1.815 1.815 0 0 1-.891.243c-6.8.164-12.951-3.2-14.354-10.234-.23-1.156.288-2.952 1.427-2.747A107.729 107.729 0 0 0 32 40.589h.018a107.587 107.587 0 0 0 18.5-1.324c1.136-.197 1.655 1.582 1.423 2.747z" fill="#000000" opacity="1" data-original="#000000"></path><path d="M36.8 47.773a3.327 3.327 0 0 1-1.137-3.108c.934-3.381 10.635-3.842 11.687-.8.51 1.481-.925 2.911-1.538 3.522-2.423 2.422-6.775 2.813-9.012.386zm.79-2.575c-.017.062-.065.412.68 1.219 1.46 1.586 4.54 1.14 6.13-.443 1.033-1.03 1.06-1.406 1.055-1.471-.663-1.115-7.473-.721-7.865.7zM18.75 47.39c-.612-.61-2.048-2.039-1.537-3.522 1.052-3.051 10.755-2.577 11.687.8a3.329 3.329 0 0 1-1.137 3.109c-2.263 2.451-6.622 1.996-9.013-.387zm.349-2.859c0 .037.03.414 1.063 1.442 1.667 1.662 4.72 1.975 6.13.445.746-.808.7-1.158.681-1.22-.389-1.405-7.212-1.814-7.873-.667zM50.44 22.038c-2-7.9-1.608-10.937-4.5-12.882a5.272 5.272 0 0 0-4.215-1.045 25.478 25.478 0 0 0-4.425 1.54 12.017 12.017 0 0 1-5.072 1.254 14.91 14.91 0 0 1-7.238-1.758c-1.727-.634-3.466-1.55-5.372-.793a5.328 5.328 0 0 0-3.26 3.536 234.177 234.177 0 0 0-3.006 10.2C8.952 23.137 4 25 4 28.1 4 33.287 18.086 36 32 36s28-2.713 28-7.9c0-3.134-5.061-5.012-9.56-6.062zM18.266 12.5a3.327 3.327 0 0 1 2.092-2.283c1.051-.42 2.125.129 3.866.782A16.526 16.526 0 0 0 32.3 12.9a13.822 13.822 0 0 0 5.8-1.416 23.336 23.336 0 0 1 4.1-1.429 3.4 3.4 0 0 1 2.623.761c2.248 1.512 1.438 3.89 4.78 15.859a.351.351 0 0 1-.28.44 98.121 98.121 0 0 1-17.313 1.467 95.812 95.812 0 0 1-17.337-1.809.4.4 0 0 1-.312-.476c.719-3.197 2.274-8.69 3.905-13.797zM32 34c-16.109 0-26-3.436-26-5.9 0-1.041 2.119-2.563 6.784-3.808-.16.645-.307 1.258-.424 1.79a2.246 2.246 0 0 0 1.94 2.656 97.667 97.667 0 0 0 17.69 1.844 100.807 100.807 0 0 0 17.669-1.494A2.252 2.252 0 0 0 51.6 26.27c-.21-.72-.4-1.386-.577-2.026C55.822 25.5 58 27.042 58 28.1c0 2.464-9.891 5.9-26 5.9z" fill="#000000" opacity="1" data-original="#000000"></path></g></svg>