<svg xmlns="http://www.w3.org/2000/svg" version="1.1" xmlns:xlink="http://www.w3.org/1999/xlink" width="512" height="512" x="0" y="0" viewBox="0 0 64 64" style="enable-background:new 0 0 512 512" xml:space="preserve" class=""><circle r="32" cx="32" cy="32" fill="#4acca5" shape="circle"></circle><g transform="matrix(0.7,0,0,0.7,9.600000000000001,9.599963361024859)"><path d="M58 15h-3.392A19.4 19.4 0 0 0 49 9.351V3.608a2.614 2.614 0 0 0-1.545-2.346A2.87 2.87 0 0 0 44.5 1.6l-4.966 3.928a28 28 0 0 0-1.555-.26 1 1 0 0 0-.992.476l-2.844 4.741a1 1 0 0 0-.091.831l1.834 5.5-1.793 2.394-2.236-3.725a1 1 0 0 0-.232-.266L27 11.52V7.159a1 1 0 0 0-1.289-.959C17.174 8.778 11.537 14.912 11.048 22H10a5.006 5.006 0 0 0-5 5v.184A3 3 0 0 0 3 30a4.291 4.291 0 0 0 .723 2.387l1.445 2.168a1 1 0 0 0 1.664 0l1.445-2.169A4.286 4.286 0 0 0 9 30a3 3 0 0 0-2-2.816V27a3 3 0 0 1 3-3h1.037c.33 4.644 2.946 9.023 7.309 12.194l.5 6.055A3.016 3.016 0 0 0 21.84 45h4.32a3.017 3.017 0 0 0 2.989-2.751l.136-1.629a29.538 29.538 0 0 0 9.43 0l.136 1.63A3.017 3.017 0 0 0 41.84 45h4.32a3.015 3.015 0 0 0 2.988-2.751l.506-6.055A18.292 18.292 0 0 0 55.693 29H58a5.006 5.006 0 0 0 5-5v-4a5.006 5.006 0 0 0-5-5ZM6.613 31.277 6 32.2l-.613-.919A2.3 2.3 0 0 1 5 30a1 1 0 0 1 2 0 2.3 2.3 0 0 1-.387 1.277ZM45.741 3.171a.865.865 0 0 1 .876-.093.6.6 0 0 1 .383.53v4.541a25.809 25.809 0 0 0-4.991-2.028ZM61 24a3 3 0 0 1-3 3h-2.969a1 1 0 0 0-.928.631 16.244 16.244 0 0 1-5.977 7.2 1 1 0 0 0-.426.738l-.545 6.518a1 1 0 0 1-1 .917H41.84a1.007 1.007 0 0 1-1-.917l-.227-2.728a1 1 0 0 0-1-.917 1.033 1.033 0 0 0-.2.02 27.48 27.48 0 0 1-10.842 0 1.007 1.007 0 0 0-.8.18 1 1 0 0 0-.4.717l-.227 2.728a1.007 1.007 0 0 1-1 .917H21.84a1.006 1.006 0 0 1-1-.917l-.54-6.522a1 1 0 0 0-.426-.738C15.506 31.794 13 27.483 13 23c0-6.247 4.665-11.811 12-14.458V12a1 1 0 0 0 .375.781l4.86 3.887 2.908 4.847a1 1 0 0 0 .8.484.983.983 0 0 0 .852-.4l3-4a1 1 0 0 0 .148-.916l-1.849-5.563 2.264-3.774C44.915 8.4 50.426 11.8 53.184 16.505a1 1 0 0 0 .863.5H58a3 3 0 0 1 3 3ZM11 47c-4.816 0-10 1.252-10 4v8c0 2.748 5.184 4 10 4s10-1.252 10-4v-8c0-2.748-5.184-4-10-4Zm8 12c0 .514-2.751 2-8 2s-8-1.486-8-2v-1.476A19.008 19.008 0 0 0 11 59a19.008 19.008 0 0 0 8-1.476Zm0-4c0 .514-2.751 2-8 2s-8-1.486-8-2v-1.476A19.008 19.008 0 0 0 11 55a19.008 19.008 0 0 0 8-1.476Zm-8-2c-5.249 0-8-1.486-8-2s2.751-2 8-2 8 1.486 8 2-2.751 2-8 2ZM33 51c-4.816 0-10 1.252-10 4v4c0 2.748 5.184 4 10 4s10-1.252 10-4v-4c0-2.748-5.184-4-10-4Zm8 8c0 .514-2.751 2-8 2s-8-1.486-8-2v-1.476A19.008 19.008 0 0 0 33 59a19.008 19.008 0 0 0 8-1.476Zm-8-2c-5.249 0-8-1.486-8-2s2.751-2 8-2 8 1.486 8 2-2.751 2-8 2Z" fill="#000" opacity="1" data-original="#000000"></path><circle cx="46" cy="18" r="2" fill="#000" opacity="1" data-original="#000000"></circle></g></svg>