<svg xmlns="http://www.w3.org/2000/svg" version="1.1" xmlns:xlink="http://www.w3.org/1999/xlink" width="512" height="512" x="0" y="0" viewBox="0 0 512 512" style="enable-background:new 0 0 512 512" xml:space="preserve" fill-rule="evenodd" class=""><circle r="256" cx="256" cy="256" fill="#4acca5" shape="circle"></circle><g transform="matrix(0.7,0,0,0.7,76.80000000000001,76.7939236164093)"><path d="M409 462H103c-3 0-6-2-6-6V56c0-4 3-6 6-6h306c3 0 6 2 6 6v400c0 4-3 6-6 6zm-300-12h294V62H109z" fill="#000000" opacity="1" data-original="#000000" class=""></path><path d="M382 152H130c-3 0-6-3-6-6V86c0-3 3-6 6-6h252c3 0 6 3 6 6v60c0 3-3 6-6 6zm-246-12h240V92H136zM177 249c-7 0-14-2-20-6-10-5-16-14-19-24-3-11-1-22 4-31 7-12 21-20 35-20 7 0 14 2 20 5 10 6 16 14 19 25 3 10 1 21-4 31-7 12-21 20-35 20zm0-69c-10 0-20 5-25 14-3 7-4 14-2 22 1 7 6 13 13 17 4 2 9 4 14 4 10 0 20-6 25-14 3-7 4-15 3-22-2-7-7-14-14-17-4-3-9-4-14-4z" fill="#000000" opacity="1" data-original="#000000" class=""></path><path d="M166 223c-2 0-4-2-5-3l-7-13c-2-3-1-6 2-8s7-1 8 2l5 7 23-13c3-2 6-1 8 2s1 7-2 8l-29 17c-1 0-1 0-2 1zM369 229H255c-3 0-6-3-6-6s3-6 6-6h114c4 0 6 3 6 6s-2 6-6 6zM369 200H255c-3 0-6-3-6-6s3-6 6-6h114c4 0 6 3 6 6s-2 6-6 6zM177 340c-7 0-14-2-20-5-20-11-26-36-15-55 7-13 21-21 35-21 7 0 14 2 20 6 10 5 16 14 19 24 3 11 1 22-4 31-7 13-21 20-35 20zm0-69c-10 0-20 6-25 15-7 13-3 31 11 38 4 3 9 4 14 4 10 0 20-5 25-14 3-7 4-14 3-22-2-7-7-13-14-17-4-2-9-4-14-4z" fill="#000000" opacity="1" data-original="#000000" class=""></path><path d="M166 314c-1 0-3-1-4-2-1 0-1-1-1-1l-7-12c-2-3-1-7 2-9 3-1 7 0 8 3l5 7 23-14c3-1 6 0 8 3 2 2 1 6-2 8l-29 16v1h-3zM369 320H255c-3 0-6-2-6-6 0-3 3-6 6-6h114c4 0 6 3 6 6 0 4-2 6-6 6zM369 291H255c-3 0-6-2-6-6 0-3 3-6 6-6h114c4 0 6 3 6 6 0 4-2 6-6 6zM177 432c-7 0-14-2-20-6-10-5-16-14-19-24-3-11-1-22 4-31 7-12 21-20 35-20 7 0 14 2 20 5 20 11 26 36 15 56-7 12-21 20-35 20zm0-69c-10 0-20 5-25 14-3 7-4 14-2 22 1 7 6 13 13 17 4 2 9 4 14 4 10 0 20-6 25-14 8-14 3-32-11-39-4-3-9-4-14-4z" fill="#000000" opacity="1" data-original="#000000" class=""></path><path d="M166 405c-1 0-3 0-4-2-1 0-1 0-1-1l-7-12c-2-3-1-6 2-8s7-1 8 2l5 7 23-13c3-2 6-1 8 2s1 7-2 8l-29 17h-3zM369 412H255c-3 0-6-3-6-6 0-4 3-6 6-6h114c4 0 6 2 6 6 0 3-2 6-6 6zM369 383H255c-3 0-6-3-6-6 0-4 3-6 6-6h114c4 0 6 2 6 6 0 3-2 6-6 6zM288 512c-1 0-2 0-3-1l-86-50c-2-1-3-4-2-6 0-3 3-5 5-5h115c2 0 4 1 5 3s1 4 0 6l-28 50c-1 2-3 3-6 3zm-63-50 61 36 21-36zm-122-57c-1 0-2 0-3-1l-80-46c-1-1-2-2-3-4 0-1 0-3 1-4l80-138c1-2 4-4 6-3 3 1 5 3 5 6v184c0 2-1 4-3 5-1 1-2 1-3 1zm-72-54 66 37V237zm378-48h-1c-3-1-5-3-5-6V113c0-2 1-4 3-5s4-1 6 0l80 46c1 1 2 2 3 4 0 1 0 3-1 4l-80 138c-1 2-3 3-5 3zm6-179v151l66-114zM310 62H195c-2 0-4-1-5-3s-1-4 0-6l28-50c2-3 6-4 9-2l85 49c2 1 4 3 4 6s-3 6-6 6zM205 50h82l-61-36z" fill="#000000" opacity="1" data-original="#000000" class=""></path></g></svg>