<svg xmlns="http://www.w3.org/2000/svg" version="1.1" xmlns:xlink="http://www.w3.org/1999/xlink" width="512" height="512" x="0" y="0" viewBox="0 0 58.32 58.32" style="enable-background:new 0 0 512 512" xml:space="preserve" class=""><circle r="29.16" cx="29.16" cy="29.16" fill="#4acca5" shape="circle"></circle><g transform="matrix(0.7,0,0,0.7,8.748122549057008,8.748180649022107)"><path d="M33.47 36.538c.102-.43.172-.885.193-1.372.404-8.843-4.428-16.084-11.671-20.739-4.308-2.77-8.394.25-9.432 4.101-2.67-2.125-7.294 1.055-5.214 4.548l.232.383c-2.088-.008-8.742-.029-6.879.002 2.202.038 7.486 5.964 7.486 5.964v-5c1.623 2.482 3.698 4.804 6.786 5.155 1.408.161 2.571-.275 3.527-1.038 1.207 1.477 1.822 3.135 1.942 5.125a24.226 24.226 0 0 0-3.187.152c-3.691.435-5.969 1.248-6.715 5.109-1.122 5.824 1.907 10.078 5.174 14.53 2.658 3.621 8.776.112 6.083-3.56-2.202-3-4.417-5.465-4.326-8.951 2.152-.327 4.292-.239 6.477-.03a7.376 7.376 0 0 0 3.469.553c1.781 5.955 5.163 11.259 9.543 15.783 3.166 3.271 8.143-1.722 4.982-4.979-4.343-4.492-7.252-9.689-8.47-15.736zM6.805 7.951c.009.1.012.2.026.301A5.956 5.956 0 1 0 18.633 6.63a5.871 5.871 0 0 0-.594-1.885c.201-.097.292-.328.224-.809l-.194-1.423A2.908 2.908 0 0 0 14.793.028l-6.342.87a2.91 2.91 0 0 0-2.487 3.28l.155 1.151c-.889.709-1.64 1.605-1.477 2.555.142.843 1.076.634 2.163.067z" style="" fill="#000" data-original="#010002" opacity="1" class=""></path><path d="M22.894 13.399s14.28 7.656 12.593 18.94c-3.698 9.408 12.449 19.098 21.229-2.6-.001 0 11.179-29.738-33.822-16.34zm24.177 17.706v1.814h-1.93v-1.707c-.894-.084-1.783-.379-2.358-.787l-.271-.195.7-1.958.47.313a3.97 3.97 0 0 0 2.15.642c.923 0 1.539-.479 1.539-1.19 0-.48-.191-1.001-1.604-1.573-1.492-.584-3.021-1.435-3.021-3.287 0-1.489.979-2.65 2.514-3.037v-1.763h1.913v1.643a4.71 4.71 0 0 1 1.945.614l.321.19-.73 1.928-.45-.256c-.264-.151-.887-.508-1.876-.508-.975 0-1.322.512-1.322.991 0 .519.258.855 1.791 1.491 1.326.54 2.853 1.422 2.853 3.451-.003 1.537-1.046 2.779-2.634 3.184z" style="" fill="#000" data-original="#010002" opacity="1" class=""></path></g></svg>