<svg xmlns="http://www.w3.org/2000/svg" version="1.1" xmlns:xlink="http://www.w3.org/1999/xlink" width="512" height="512" x="0" y="0" viewBox="0 0 512 512" style="enable-background:new 0 0 512 512" xml:space="preserve" class=""><circle r="256" cx="256" cy="256" fill="#4acca5" shape="circle"></circle><g transform="matrix(0.7,0,0,0.7,76.80000138927426,76.80000000000001)"><path d="m496.522 235.316-33.653-16.826-6.339-25.355 1.876-1.125A28.143 28.143 0 0 0 472 168v-32h16v-16h-8v-18a38.143 38.143 0 0 0-24.477-35.519 32 32 0 0 0-63.046 0A38.143 38.143 0 0 0 368 102v18h-8v16h16v32a28.143 28.143 0 0 0 13.594 24.01l1.876 1.125-6.339 25.355-33.653 16.826a27.9 27.9 0 0 0-14.805 18.94l15.615 3.488a11.954 11.954 0 0 1 6.345-8.117l15.2-7.6-5.681 28.4a8 8 0 0 0 10.375 9.159L424 264.433l45.47 15.157a8 8 0 0 0 10.375-9.159l-5.681-28.4 15.2 7.6A11.935 11.935 0 0 1 496 260.36V280h16v-19.64a27.853 27.853 0 0 0-15.478-25.044ZM424 56a16 16 0 1 1-16 16 16.019 16.019 0 0 1 16-16Zm-40 64v-18a22.084 22.084 0 0 1 10.128-18.523 32 32 0 0 0 59.744 0A22.084 22.084 0 0 1 464 102v18Zm72 16v32a12.058 12.058 0 0 1-5.826 10.289l-20 12a11.978 11.978 0 0 1-12.348 0l-20-12A12.058 12.058 0 0 1 392 168v-32Zm-69.452 124.051 5.032-25.157 17.61 17.61Zm14.312-38.5 4.952-19.806 3.782 2.269a27.945 27.945 0 0 0 28.812 0l3.783-2.27 4.951 19.806L424 244.687Zm37.95 30.949 17.61-17.61 5.032 25.157ZM496 296h16v80h-16z" fill="#000000" opacity="1" data-original="#000000"></path><path d="M416 280h16v16h-16zM416 312h16v16h-16zM456 296h16v80h-16zM0 296h16v80H0zM42.53 279.59 88 264.433l45.47 15.157a8 8 0 0 0 10.375-9.159l-5.681-28.4 15.2 7.6a11.952 11.952 0 0 1 6.346 8.117l15.615-3.488a27.9 27.9 0 0 0-14.805-18.94l-33.651-16.83-6.339-25.355 1.876-1.125A28.143 28.143 0 0 0 136 168v-32h16v-16h-8v-18a38.143 38.143 0 0 0-24.477-35.519 32 32 0 0 0-63.046 0A38.143 38.143 0 0 0 32 102v18h-8v16h16v32a28.143 28.143 0 0 0 13.594 24.01l1.876 1.125-6.339 25.355-33.654 16.826A27.854 27.854 0 0 0 0 260.36V280h16v-19.64a11.936 11.936 0 0 1 6.633-10.733l15.2-7.6-5.681 28.4a8 8 0 0 0 10.378 9.163Zm22.33-58.044 4.952-19.806 3.782 2.269a27.945 27.945 0 0 0 28.812 0l3.783-2.27 4.951 19.806L88 244.687Zm-3.034-43.257A12.058 12.058 0 0 1 56 168v-32h64v32a12.058 12.058 0 0 1-5.826 10.289l-20 12a11.978 11.978 0 0 1-12.348 0Zm63.626 81.762L102.81 252.5l17.61-17.61ZM88 56a16 16 0 1 1-16 16 16.019 16.019 0 0 1 16-16Zm-40 64v-18a22.084 22.084 0 0 1 10.128-18.523 32 32 0 0 0 59.744 0A22.084 22.084 0 0 1 128 102v18Zm7.58 114.894L73.19 252.5l-22.642 7.547Z" fill="#000000" opacity="1" data-original="#000000"></path><path d="M80 280h16v16H80zM80 312h16v16H80zM40 296h16v80H40z" fill="#000000" opacity="1" data-original="#000000"></path><path d="M455.11 469.309a8 8 0 0 0-5.44-4.158l-10.709-2.285-10.334-86.117a128.015 128.015 0 0 0-109.888-111.6A25.133 25.133 0 0 0 306.7 250.91l4.222-33.771 25.295 9.486a11.893 11.893 0 0 1 4.435 2.917l11.538-11.084a28.128 28.128 0 0 0-10.356-6.814l-47.089-17.659-6.213-24.85 1.876-1.125A28.143 28.143 0 0 0 304 144v-43.754l17.94-4.485A8 8 0 0 0 328 88V72a8 8 0 0 0-8-8h-8V46a38.061 38.061 0 0 0-32-37.526V8a8 8 0 0 0-8-8h-32a8 8 0 0 0-8 8v.474A38.061 38.061 0 0 0 200 46v18h-8a8 8 0 0 0-8 8v16a8 8 0 0 0 6.06 7.761l17.94 4.485V144a28.143 28.143 0 0 0 13.594 24.01l1.876 1.125-6.213 24.85-47.087 17.658a28.134 28.134 0 0 0-10.358 6.815l11.538 11.084a11.9 11.9 0 0 1 4.437-2.918l25.293-9.485 4.22 33.771a25.133 25.133 0 0 0-12.041 14.244 128.015 128.015 0 0 0-109.888 111.6l-10.332 86.112-10.709 2.285a8 8 0 0 0-5.44 4.158l-.958 1.857A28 28 0 0 0 80.817 512h350.366a28 28 0 0 0 24.885-40.834ZM280 24.832A22.039 22.039 0 0 1 296 46v18h-16ZM248 16h16v48h-16Zm-32 30a22.039 22.039 0 0 1 16-21.168V64h-16Zm-16 35.754V80h112v1.754l-56 14Zm62.174 84.536a11.978 11.978 0 0 1-12.348 0l-20-12A12.058 12.058 0 0 1 224 144v-39.754l30.06 7.515a7.993 7.993 0 0 0 3.88 0l30.06-7.515V144a12.058 12.058 0 0 1-5.826 10.289Zm16.966 31.256L256 220.687l-23.14-23.141 4.952-19.806 3.782 2.269a27.945 27.945 0 0 0 28.812 0l3.783-2.27ZM221.985 209.3l28.358 28.358a8 8 0 0 0 11.314 0l28.358-28.358 5.5 2.064L290.938 248h-69.876l-4.58-36.637ZM99.259 378.655A112.012 112.012 0 0 1 192 281.525V312h16v-39a9.01 9.01 0 0 1 9-9h78a9.01 9.01 0 0 1 9 9v119h16V281.525a112.012 112.012 0 0 1 92.741 97.13l9.682 80.681L320 437.478V408h-16v26.063l-46.33-9.887a8 8 0 0 0-3.34 0L208 434.063V328h-16v109.478L89.577 459.336Zm342.171 111.59A11.763 11.763 0 0 1 431.183 496H80.817A12.009 12.009 0 0 1 69.5 479.981L256 440.18l186.5 39.8a11.726 11.726 0 0 1-1.07 10.265Z" fill="#000000" opacity="1" data-original="#000000"></path></g></svg>